#!OML:ASF I:\Actors\actors\Patient Classification 1\Patient 1\Session 1\Subject1.ASF
:FULLY-SPECIFIED
:DEGREES
303
root -0.637319 17.9054 7.41783 26.995 12.7649 -13.0038
lowerback 25.3572 2.33632 2.88395
upperback 12.1299 3.58823 -0.443076
thorax -0.418359 1.91116 -3.00003
lowerneck -16.6753 -1.60025 0.0231119
upperneck -2.57374 -2.3264 6.95808
head 2.16281 -0.909995 2.11966
rclavicle 3.4191e-014 -5.08889e-014
rhumerus 53.1754 4.644 -91.4851
rradius 14.806
rwrist 20.5635
rhand 14.106 -28.3931
rfingers 7.12502
rthumb 39.0095 -53.9105
lclavicle 3.4191e-014 -5.08889e-014
lhumerus 58.5974 7.7803 96.1745
lradius 8.54189
lwrist 2.2831
lhand -21.4959 -11.9201
lfingers 7.12502
lthumb 4.89553 18.0033
rfemur -30.0561 30.4903 17.3615
rtibia 1.68803
rfoot -12.6082 -37.9718
rtoes 15.2265
lfemur -35.6004 -37.0803 22.6625
ltibia -0.628782
lfoot -8.28193 48.8443
ltoes 3.69192
304
root -0.632942 17.9068 7.41754 26.9539 12.7934 -13.0794
lowerback 25.5589 2.32156 2.93921
upperback 12.1502 3.58613 -0.413665
thorax -0.489145 1.90963 -3.00884
lowerneck -16.6644 -1.60715 -0.000461679
upperneck -2.58085 -2.33277 7.02222
head 2.16073 -0.91129 2.14511
rclavicle 1.90833e-014 -6.04305e-014
rhumerus 53.2147 5.39047 -89.7927
rradius 15.1619
rwrist 19.4014
rhand 13.0879 -28.1866
rfingers 7.12502
rthumb 38.0489 -53.9725
lclavicle 1.90833e-014 -6.04305e-014
lhumerus 58.1822 7.9795 95.9458
lradius 8.90655
lwrist 2.24067
lhand -20.793 -12.3188
lfingers 7.12502
lthumb 5.57417 17.5879
rfemur -29.992 30.4643 17.475
rtibia 1.65744
rfoot -12.5132 -37.9585
rtoes 15.0215
lfemur -35.5769 -37.1366 22.7439
ltibia -0.643828
lfoot -8.04945 48.8654
ltoes 3.28876
305
root -0.62875 17.9066 7.4167 26.9259 12.7755 -13.1426
lowerback 25.6557 2.34918 3.00344
upperback 12.217 3.63425 -0.433694
thorax -0.450088 1.93802 -3.08102
lowerneck -16.5852 -1.63044 0.215693
upperneck -2.62613 -2.39959 6.99005
head 2.12811 -0.950228 2.08948
rclavicle 1.59028e-014 1.78906e-014
rhumerus 53.2815 6.02181 -88.0494
rradius 15.605
rwrist 17.8759
rhand 12.4203 -28.1653
rfingers 7.12502
rthumb 37.4181 -54.1205
lclavicle 1.59028e-014 1.78906e-014
lhumerus 57.6491 8.13411 95.6198
lradius 9.51996
lwrist 2.52928
lhand -19.3965 -12.6364
lfingers 7.12502
lthumb 6.92239 17.2304
rfemur -29.9486 30.4735 17.5491
rtibia 1.62324
rfoot -12.4006 -37.952
rtoes 14.7008
lfemur -35.5408 -37.2187 22.8229
ltibia -0.683258
lfoot -7.86963 48.965
ltoes 2.94323
306
root -0.624649 17.9043 7.41664 26.92 12.7259 -13.1542
lowerback 25.6627 2.32671 3.00476
upperback 12.2516 3.60205 -0.529011
thorax -0.409577 1.92706 -3.1761
lowerneck -16.4572 -1.58555 0.667822
upperneck -2.45461 -2.4264 6.78924
head 2.15038 -0.971627 1.93882
rclavicle 4.92986e-014 5.96354e-015
rhumerus 53.2893 6.7009 -86.5606
rradius 15.9859
rwrist 16.33
rhand 11.98 -28.336
rfingers 7.12502
rthumb 37.0018 -54.4
lclavicle 4.92986e-014 5.96354e-015
lhumerus 57.1371 8.43555 95.1396
lradius 9.95922
lwrist 2.8478
lhand -17.8811 -12.9767
lfingers 7.12502
lthumb 8.38513 16.8368
rfemur -29.9121 30.4843 17.5524
rtibia 1.58323
rfoot -12.3811 -37.9189
rtoes 14.8902
lfemur -35.539 -37.3955 22.9002
ltibia -0.71961
lfoot -8.01958 49.1968
ltoes 3.08297
307
root -0.619496 17.9013 7.41718 26.9365 12.7043 -13.1337
lowerback 25.6461 2.28061 2.97762
upperback 12.2787 3.53797 -0.527823
thorax -0.37842 1.89547 -3.14208
lowerneck -16.5066 -1.62633 0.657
upperneck -2.02985 -2.50784 6.73577
head 2.30682 -1.00286 1.9196
rclavicle 3.4191e-014 8.0309e-014
rhumerus 53.1126 6.13087 -87.3242
rradius 16.1805
rwrist 17.7983
rhand 11.8404 -28.0934
rfingers 7.12502
rthumb 36.8697 -54.1914
lclavicle 3.4191e-014 8.0309e-014
lhumerus 56.7682 8.73927 94.9068
lradius 10.0738
lwrist 2.98093
lhand -17.1315 -13.5391
lfingers 7.12502
lthumb 9.10843 16.2442
rfemur -29.8703 30.4543 17.5326
rtibia 1.52352
rfoot -12.4078 -37.8621
rtoes 15.1656
lfemur -35.6012 -37.6122 22.9922
ltibia -0.738421
lfoot -8.3119 49.4434
ltoes 3.59547
